<?xml version="1.0" encoding="utf-8"?>
<!-- Generator: Adobe Illustrator 26.0.0, SVG Export Plug-In . SVG Version: 6.00 Build 0)  -->
<svg version="1.1" id="Layer_1" xmlns="http://www.w3.org/2000/svg" xmlns:xlink="http://www.w3.org/1999/xlink" x="0px" y="0px"
	 viewBox="0 0 40 40" style="enable-background:new 0 0 40 40;" xml:space="preserve">
<style type="text/css">
	.st0{fill:none;stroke:#FF6180;stroke-width:4.804;stroke-miterlimit:10;}
	.st1{fill:none;stroke:#FF6180;stroke-width:2.878;stroke-miterlimit:10;}
	.st2{fill:#AFB7C0;}
	.st3{fill:#D0D5DA;}
	.st4{fill:none;}
</style>
<line class="st0" x1="14" y1="12.8" x2="20.7" y2="21.5"/>
<line class="st0" x1="26" y1="12.8" x2="19.8" y2="20.9"/>
<ellipse class="st1" cx="11.1" cy="8.9" rx="5.1" ry="5"/>
<ellipse class="st1" cx="28.9" cy="8.9" rx="5.1" ry="5"/>
<path class="st2" d="M31.7,31.2L21.5,17.8c-1-1.3-2-1.3-3,0l-1.8,2.4l13.9,18l0.2-0.1C32.9,36.4,33.3,33.4,31.7,31.2
	C31.7,31.3,31.7,31.2,31.7,31.2z"/>
<path class="st3" d="M23.3,20.2l-1.8-2.4c-1-1.3-2-1.3-3,0L8.2,31.2C6.6,33.4,7,36.4,9.1,38c0,0,0,0,0,0l0.2,0.1L23.3,20.2z"/>
<rect class="st4" width="40" height="40"/>
</svg>
